<svg id="Icons" height="512" viewBox="0 0 74 74" width="512" fill="#0068ff" xmlns="http://www.w3.org/2000/svg"><path d="m71 57.43a1 1 0 0 1 -1-1v-2.93a1 1 0 0 1 2 0v2.93a1 1 0 0 1 -1 1z"/><path d="m69 72h-64a3 3 0 0 1 -3-3v-44a1 1 0 0 1 1-1h68a1 1 0 0 1 1 1v11.56a1 1 0 0 1 -2 0v-10.56h-66v43a1 1 0 0 0 1 1h64a1 1 0 0 0 1-1v-5.56a1 1 0 0 1 2 0v5.56a3 3 0 0 1 -3 3z"/><path d="m71 47.5a1 1 0 0 1 -1-1v-2.94a1 1 0 0 1 2 0v2.94a1 1 0 0 1 -1 1z"/><path d="m71 26h-68a1 1 0 0 1 -1-1v-13a3 3 0 0 1 3-3h9.25a1 1 0 0 1 0 2h-9.25a1 1 0 0 0 -1 1v12h66v-12a1 1 0 0 0 -1-1h-9.25a1 1 0 0 1 0-2h9.25a3 3 0 0 1 3 3v13a1 1 0 0 1 -1 1z"/><path d="m52.75 11h-31.5a1 1 0 0 1 0-2h31.5a1 1 0 0 1 0 2z"/><path d="m56.25 18a4.505 4.505 0 0 1 -4.5-4.5v-7a4.5 4.5 0 0 1 9 0v7a4.505 4.505 0 0 1 -4.5 4.5zm0-14a2.5 2.5 0 0 0 -2.5 2.5v7a2.5 2.5 0 0 0 5 0v-7a2.5 2.5 0 0 0 -2.5-2.5z"/><path d="m17.75 18a4.505 4.505 0 0 1 -4.5-4.5v-7a4.5 4.5 0 0 1 9 0v7a4.505 4.505 0 0 1 -4.5 4.5zm0-14a2.5 2.5 0 0 0 -2.5 2.5v7a2.5 2.5 0 0 0 5 0v-7a2.5 2.5 0 0 0 -2.5-2.5z"/><path d="m60.625 40.5h-4.5a2 2 0 0 1 -2-2v-4.5a2 2 0 0 1 2-2h4.5a2 2 0 0 1 2 2v4.5a2 2 0 0 1 -2 2zm-4.5-6.5v4.5h4.5v-4.5z"/><path d="m46.375 40.5h-4.5a2 2 0 0 1 -2-2v-4.5a2 2 0 0 1 2-2h4.5a2 2 0 0 1 2 2v4.5a2 2 0 0 1 -2 2zm-4.5-6.5v4.5h4.5v-4.5z"/><path d="m32.125 40.5h-4.5a2 2 0 0 1 -2-2v-4.5a2 2 0 0 1 2-2h4.5a2 2 0 0 1 2 2v4.5a2 2 0 0 1 -2 2zm-4.5-6.5v4.5h4.5v-4.5z"/><path d="m60.625 52.25h-4.5a2 2 0 0 1 -2-2v-4.5a2 2 0 0 1 2-2h4.5a2 2 0 0 1 2 2v4.5a2 2 0 0 1 -2 2zm-4.5-6.5v4.5h4.5v-4.5z"/><path d="m46.375 52.25h-4.5a2 2 0 0 1 -2-2v-4.5a2 2 0 0 1 2-2h4.5a2 2 0 0 1 2 2v4.5a2 2 0 0 1 -2 2zm-4.5-6.5v4.5h4.5v-4.5z"/><path d="m32.125 52.25h-4.5a2 2 0 0 1 -2-2v-4.5a2 2 0 0 1 2-2h4.5a2 2 0 0 1 2 2v4.5a2 2 0 0 1 -2 2zm-4.5-6.5v4.5h4.5v-4.5z"/><path d="m17.875 52.25h-4.5a2 2 0 0 1 -2-2v-4.5a2 2 0 0 1 2-2h4.5a2 2 0 0 1 2 2v4.5a2 2 0 0 1 -2 2zm-4.5-6.5v4.5h4.5v-4.5z"/><path d="m46.375 64h-4.5a2 2 0 0 1 -2-2v-4.5a2 2 0 0 1 2-2h4.5a2 2 0 0 1 2 2v4.5a2 2 0 0 1 -2 2zm-4.5-6.5v4.5h4.5v-4.5z"/><path d="m32.125 64h-4.5a2 2 0 0 1 -2-2v-4.5a2 2 0 0 1 2-2h4.5a2 2 0 0 1 2 2v4.5a2 2 0 0 1 -2 2zm-4.5-6.5v4.5h4.5v-4.5z"/><path d="m17.875 64h-4.5a2 2 0 0 1 -2-2v-4.5a2 2 0 0 1 2-2h4.5a2 2 0 0 1 2 2v4.5a2 2 0 0 1 -2 2zm-4.5-6.5v4.5h4.5v-4.5z"/></svg>