<?xml version="1.0" encoding="iso-8859-1"?>
<!-- Generator: Adobe Illustrator 18.0.0, SVG Export Plug-In . SVG Version: 6.00 Build 0)  -->
<!DOCTYPE svg PUBLIC "-//W3C//DTD SVG 1.1//EN" "http://www.w3.org/Graphics/SVG/1.1/DTD/svg11.dtd">
<svg version="1.1" id="Capa_1" xmlns="http://www.w3.org/2000/svg" xmlns:xlink="http://www.w3.org/1999/xlink" x="0px" y="0px"
	 viewBox="0 0 451.5 451.5" style="enable-background:new 0 0 451.5 451.5;" xml:space="preserve" fill="#5faa37">
<g>
	<path d="M415.78,285.834V159.61l11.267,12.123c2.256,2.427,6.052,2.566,8.479,0.311c2.427-2.256,2.566-6.052,0.311-8.479
		L288.251,4.767c-2.256-2.427-6.053-2.566-8.479-0.311c-2.427,2.256-2.566,6.052-0.311,8.479l26.847,28.887L270,80.89V49.649
		c0-3.313-2.687-6-6-6h-33c-3.313,0-6,2.687-6,6v79.66l-31.837,34.256c-2.256,2.427-2.117,6.224,0.311,8.479
		c1.155,1.074,2.621,1.605,4.083,1.605c1.609,0,3.214-0.644,4.396-1.916l9.047-9.734v47.65H99c-3.057,0-5.625,2.299-5.963,5.337
		l-6.277,56.493H17c-2.995,0-5.531,2.208-5.943,5.174l-11,79.17c-0.239,1.719,0.278,3.457,1.417,4.766
		c1.14,1.309,2.79,2.06,4.525,2.06h6v80c0,3.313,2.687,6,6,6h427.5c3.314,0,6-2.686,6-6v-117.5
		C451.5,304.644,435.793,287.744,415.78,285.834z M415.78,342.649h17.417c-4.288,5.185-10.44,8.77-17.417,9.734V342.649z
		 M438.947,330.649H415.78v-8h23.601c0.075,0.824,0.119,1.657,0.119,2.5C439.5,327.032,439.309,328.871,438.947,330.649z
		 M435.352,310.649H415.78v-12.734C424.033,299.055,431.126,303.868,435.352,310.649z M237,55.649h21v38.153l-21,22.595V55.649z
		 M314.5,50.636l89.28,96.063v205.975c-19.004,0.286-41.62,3.183-62.78,12.383v-39.408c0-3.313-2.687-6-6-6h-64
		c-3.313,0-6,2.687-6,6v111h-17v-116h8c3.313,0,6-2.687,6-6v-42c0-3.313-2.687-6-6-6h-33V149.088L314.5,50.636z M104.37,221.649H211
		v51c0,3.313,2.687,6,6,6h33v30H94.704L104.37,221.649z M147,320.649h13v57h-13V320.649z M172,320.649h13v57h-13V320.649z
		 M53.5,362.649v74H44v-74H53.5z M65.5,362.649H75v74h-9.5V362.649z M87,362.649h9v74h-9V362.649z M22.224,283.479h63.202
		l-3.39,30.507c-0.188,1.696,0.354,3.393,1.493,4.664c1.138,1.272,2.764,1.999,4.471,1.999h8v30H12.891L22.224,283.479z M24,362.649
		h8v74h-8V362.649z M219.22,436.649H108v-116h27v63c0,3.313,2.687,6,6,6h50c3.313,0,6-2.687,6-6v-63h39v116H219.22z M277,331.649h52
		v39.446c-11.041,6.361-21.375,14.76-30.19,25.812c-12.692,15.912-17.812,31.786-19.725,39.741H277V331.649z M291.489,436.649
		c2.086-7.379,6.76-19.795,16.701-32.259c21.034-26.37,54.278-39.741,98.81-39.741h5c10.683,0,20.383-4.27,27.5-11.184v83.184
		H291.489z"/>
	<path d="M245,259.649h48c3.313,0,6-2.687,6-6v-76c0-3.313-2.687-6-6-6h-48c-3.313,0-6,2.687-6,6v76
		C239,256.962,241.687,259.649,245,259.649z M251,221.649h12v26h-12V221.649z M275,247.649v-26h12v26H275z M287,209.649h-12v-26h12
		V209.649z M263,183.649v26h-12v-26H263z"/>
	<path d="M328,177.649v76c0,3.313,2.687,6,6,6h48c3.313,0,6-2.687,6-6v-76c0-3.313-2.687-6-6-6h-48
		C330.686,171.649,328,174.335,328,177.649z M340,221.649h12v26h-12V221.649z M364,247.649v-26h12v26H364z M376,209.649h-12v-26h12
		V209.649z M352,183.649v26h-12v-26H352z"/>
	<path d="M314.5,122.649c12.682,0,23-10.318,23-23s-10.318-23-23-23s-23,10.318-23,23S301.818,122.649,314.5,122.649z M314.5,88.649
		c6.065,0,11,4.935,11,11s-4.935,11-11,11s-11-4.935-11-11S308.435,88.649,314.5,88.649z"/>
</g>
<g>
</g>
<g>
</g>
<g>
</g>
<g>
</g>
<g>
</g>
<g>
</g>
<g>
</g>
<g>
</g>
<g>
</g>
<g>
</g>
<g>
</g>
<g>
</g>
<g>
</g>
<g>
</g>
<g>
</g>
</svg>
